<?xml version="1.0" encoding="iso-8859-1"?>
<!-- Generator: Adobe Illustrator 19.1.0, SVG Export Plug-In . SVG Version: 6.00 Build 0)  -->
<svg version="1.1" id="Capa_1" xmlns="http://www.w3.org/2000/svg" xmlns:xlink="http://www.w3.org/1999/xlink" x="0px" y="0px"
	 viewBox="0 0 605.658 605.658" style="enable-background:new 0 0 605.658 605.658;" xml:space="preserve">
<g>
	<g>
		<path d="M239.104,166.043c26.186,22.925,52.04,39.172,53.125,39.853c3.244,2.027,6.921,3.038,10.598,3.038
			c3.677,0,7.358-1.016,10.598-3.038c1.089-0.681,26.943-16.928,53.125-39.853c38.611-33.803,57.378-63.547,57.378-90.922
			c0-38.913-31.647-70.572-70.546-70.572c-19.807,0-37.728,8.208-50.555,21.4c-12.823-13.192-30.748-21.4-50.551-21.4
			c-38.899,0-70.546,31.659-70.546,70.572C181.73,102.496,200.497,132.24,239.104,166.043z M252.276,44.52
			c16.852,0,30.564,13.73,30.564,30.601c0,11.041,8.952,19.987,19.987,19.987c11.038,0,19.987-8.946,19.987-19.987
			c0-16.871,13.714-30.601,30.568-30.601c16.856,0,30.572,13.73,30.572,30.601c0,24.73-44.425,64.922-81.128,89.941
			c-36.698-25.022-81.123-65.213-81.123-89.941C221.703,58.25,235.415,44.52,252.276,44.52z"/>
		<path d="M415,219.726c-41.896,0-80.675,13.598-112.173,36.598c-31.498-23.001-70.275-36.598-112.173-36.598
			C85.526,219.726,0,305.271,0,410.419s85.526,190.69,190.654,190.69c41.898,0,80.673-13.598,112.173-36.598
			c31.498,23.001,70.277,36.598,112.173,36.598c105.132,0,190.658-85.54,190.658-190.69S520.132,219.726,415,219.726z
			 M302.827,510.921c-23.922-26.69-38.507-61.918-38.507-100.5s14.583-73.811,38.507-100.5c23.924,26.69,38.509,61.918,38.509,100.5
			C341.336,449.001,326.751,484.232,302.827,510.921z M39.973,410.419c0-83.108,67.593-150.721,150.682-150.721
			c30.14,0,58.221,8.934,81.796,24.245c-29.908,33.684-48.104,77.989-48.104,126.476c0,48.483,18.196,92.794,48.104,126.478
			c-23.578,15.311-51.656,24.241-81.796,24.241C107.566,561.138,39.973,493.526,39.973,410.419z M415,561.138
			c-30.14,0-58.221-8.93-81.794-24.237c29.908-33.688,48.104-77.997,48.104-126.48c0-48.487-18.196-92.798-48.104-126.48
			C356.781,268.634,384.86,259.7,415,259.7c83.089,0,150.686,67.613,150.686,150.721S498.089,561.138,415,561.138z"/>
	</g>
</g>
<g>
</g>
<g>
</g>
<g>
</g>
<g>
</g>
<g>
</g>
<g>
</g>
<g>
</g>
<g>
</g>
<g>
</g>
<g>
</g>
<g>
</g>
<g>
</g>
<g>
</g>
<g>
</g>
<g>
</g>
</svg>
