<svg xmlns="http://www.w3.org/2000/svg" xmlns:xlink="http://www.w3.org/1999/xlink" width="38" height="38" viewBox="0 0 38 38">
  <defs>
    <style>
      .cls-1 {
        fill: #7a5d4d;
        fill-rule: evenodd;
        filter: url(#filter);
      }
    </style>
    <filter id="filter" x="176.156" y="285.031" width="37.938" height="21.782" filterUnits="userSpaceOnUse">
      <feFlood result="flood" flood-color="#7a5d4d"/>
      <feComposite result="composite" operator="in" in2="SourceGraphic"/>
      <feBlend result="blend" in2="SourceGraphic"/>
    </filter>
  </defs>
  <path id="Фигура_1" data-name="Фигура 1" class="cls-1" d="M194.705,306.7h2.267a1.911,1.911,0,0,0,1.035-.455,1.677,1.677,0,0,0,.312-1s-0.045-3.061,1.368-3.511c1.392-.445,3.18,2.958,5.074,4.266a3.576,3.576,0,0,0,2.522.773l5.067-.071s2.65-.164,1.393-2.261c-0.1-.171-0.732-1.55-3.767-4.384-3.177-2.966-2.751-2.486,1.076-7.617,2.33-3.125,3.262-5.032,2.971-5.849-0.278-.779-1.992-0.573-1.992-0.573l-5.705.035a1.294,1.294,0,0,0-.736.131,1.6,1.6,0,0,0-.5.616,33.325,33.325,0,0,1-2.107,4.474c-2.54,4.339-3.556,4.569-3.971,4.3-0.966-.628-0.725-2.523-0.725-3.869,0-4.2.634-5.958-1.234-6.412a9.725,9.725,0,0,0-2.663-.266c-2.036-.021-3.758.006-4.734,0.487-0.649.32-1.149,1.032-.844,1.073a2.556,2.556,0,0,1,1.683.851,5.563,5.563,0,0,1,.564,2.6s0.336,4.95-.784,5.565c-0.769.421-1.824-.44-4.088-4.376a36.6,36.6,0,0,1-2.037-4.245,1.709,1.709,0,0,0-.47-0.64,2.356,2.356,0,0,0-.876-0.356l-5.421.036a1.843,1.843,0,0,0-1.113.379,1.193,1.193,0,0,0-.021.971s4.244,9.988,9.049,15.021A12.977,12.977,0,0,0,194.705,306.7Z" transform="translate(-176.156 -276.922)"/>
</svg>
